HIERARCHY
ROOT Hips
{
    OFFSET   0.000000   0.000000   0.000000
    CHANNELS 6 Xposition Yposition Zposition Zrotation Xrotation Yrotation
    JOINT Chest
    {
        OFFSET   0.000000   8.007230   0.000000
        CHANNELS 3 Zrotation Xrotation Yrotation
        JOINT Chest2
        {
            OFFSET   0.000000  22.077100   0.000000
            CHANNELS 3 Zrotation Xrotation Yrotation
            JOINT Neck
            {
                OFFSET   0.000000  23.254800  -0.000021
                CHANNELS 3 Zrotation Xrotation Yrotation
                JOINT Head
                {
                    OFFSET   0.000000  14.370000   1.956610
                    CHANNELS 3 Zrotation Xrotation Yrotation
                    End Site
                    {
                        OFFSET   0.000000  19.566000   0.000000
                    }
                }
            }
            JOINT LeftCollar
            {
                OFFSET   3.911900  19.017000  -0.467063
                CHANNELS 3 Zrotation Xrotation Yrotation
                JOINT LeftShoulder
                {
                    OFFSET  10.383700   0.000000   0.000000
                    CHANNELS 3 Zrotation Xrotation Yrotation
                    JOINT LeftElbow
                    {
                        OFFSET  26.662100   0.001529   0.000325
                        CHANNELS 3 Zrotation Xrotation Yrotation
                        JOINT LeftWrist
                        {
                            OFFSET  28.869000  -0.000011  -0.000096
                            CHANNELS 3 Zrotation Xrotation Yrotation
                            JOINT LeftFinger0
                            {
                                OFFSET   2.044650  -2.323460   3.252850
                                CHANNELS 3 Zrotation Xrotation Yrotation
                                JOINT LeftFinger01
                                {
                                    OFFSET   3.088130   0.000000   0.000000
                                    CHANNELS 3 Zrotation Xrotation Yrotation
                                    JOINT LeftFinger02
                                    {
                                        OFFSET   2.639460   0.000000   0.000000
                                        CHANNELS 3 Zrotation Xrotation Yrotation
                                        End Site
                                        {
                                            OFFSET   2.582190   0.000000   0.000000
                                        }
                                    }
                                }
                            }
                            JOINT LeftFinger1
                            {
                                OFFSET   8.364480   0.000000   3.252850
                                CHANNELS 3 Zrotation Xrotation Yrotation
                                JOINT LeftFinger11
                                {
                                    OFFSET   4.646930   0.000000   0.000000
                                    CHANNELS 3 Zrotation Xrotation Yrotation
                                    JOINT LeftFinger12
                                    {
                                        OFFSET   2.323460   0.000000   0.000000
                                        CHANNELS 3 Zrotation Xrotation Yrotation
                                        End Site
                                        {
                                            OFFSET   2.273050   0.000000   0.000000
                                        }
                                    }
                                }
                            }
                            JOINT LeftFinger2
                            {
                                OFFSET   8.364480   0.000016   1.078090
                                CHANNELS 3 Zrotation Xrotation Yrotation
                                JOINT LeftFinger21
                                {
                                    OFFSET   5.111620   0.000000   0.000000
                                    CHANNELS 3 Zrotation Xrotation Yrotation
                                    JOINT LeftFinger22
                                    {
                                        OFFSET   2.788160   0.000017   0.000000
                                        CHANNELS 3 Zrotation Xrotation Yrotation
                                        End Site
                                        {
                                            OFFSET   2.727660   0.000000   0.000000
                                        }
                                    }
                                }
                            }
                            JOINT LeftFinger3
                            {
                                OFFSET   7.899780   0.000015  -1.078090
                                CHANNELS 3 Zrotation Xrotation Yrotation
                                JOINT LeftFinger31
                                {
                                    OFFSET   4.646920   0.000000   0.000000
                                    CHANNELS 3 Zrotation Xrotation Yrotation
                                    JOINT LeftFinger32
                                    {
                                        OFFSET   2.323470   0.000000   0.000000
                                        CHANNELS 3 Zrotation Xrotation Yrotation
                                        End Site
                                        {
                                            OFFSET   2.273050   0.000000   0.000000
                                        }
                                    }
                                }
                            }
                            JOINT LeftFinger4
                            {
                                OFFSET   7.435090   0.000000  -3.252850
                                CHANNELS 3 Zrotation Xrotation Yrotation
                                JOINT LeftFinger41
                                {
                                    OFFSET   3.717550   0.000000   0.000000
                                    CHANNELS 3 Zrotation Xrotation Yrotation
                                    JOINT LeftFinger42
                                    {
                                        OFFSET   1.858760   0.000000   0.000000
                                        CHANNELS 3 Zrotation Xrotation Yrotation
                                        End Site
                                        {
                                            OFFSET   1.818440   0.000000   0.000000
                                        }
                                    }
                                }
                            }
                        }
                    }
                }
            }
            JOINT RightCollar
            {
                OFFSET  -3.911900  19.017000  -0.467062
                CHANNELS 3 Zrotation Xrotation Yrotation
                JOINT RightShoulder
                {
                    OFFSET -10.383700   0.000015   0.000000
                    CHANNELS 3 Zrotation Xrotation Yrotation
                    JOINT RightElbow
                    {
                        OFFSET -26.662100   0.001341   0.000385
                        CHANNELS 3 Zrotation Xrotation Yrotation
                        JOINT RightWrist
                        {
                            OFFSET -28.869000   0.000025  -0.000080
                            CHANNELS 3 Zrotation Xrotation Yrotation
                            JOINT RightFinger0
                            {
                                OFFSET  -2.044650  -2.323490   3.252850
                                CHANNELS 3 Zrotation Xrotation Yrotation
                                JOINT RightFinger01
                                {
                                    OFFSET  -3.088130   0.000000   0.000000
                                    CHANNELS 3 Zrotation Xrotation Yrotation
                                    JOINT RightFinger02
                                    {
                                        OFFSET  -2.639460   0.000000   0.000000
                                        CHANNELS 3 Zrotation Xrotation Yrotation
                                        End Site
                                        {
                                            OFFSET  -2.582190   0.000000   0.000000
                                        }
                                    }
                                }
                            }
                            JOINT RightFinger1
                            {
                                OFFSET  -8.364480   0.000000   3.252850
                                CHANNELS 3 Zrotation Xrotation Yrotation
                                JOINT RightFinger11
                                {
                                    OFFSET  -4.646930   0.000000   0.000000
                                    CHANNELS 3 Zrotation Xrotation Yrotation
                                    JOINT RightFinger12
                                    {
                                        OFFSET  -2.323470   0.000000   0.000000
                                        CHANNELS 3 Zrotation Xrotation Yrotation
                                        End Site
                                        {
                                            OFFSET  -2.273050   0.000000   0.000000
                                        }
                                    }
                                }
                            }
                            JOINT RightFinger2
                            {
                                OFFSET  -8.364480   0.000000   1.078090
                                CHANNELS 3 Zrotation Xrotation Yrotation
                                JOINT RightFinger21
                                {
                                    OFFSET  -5.111610   0.000000   0.000000
                                    CHANNELS 3 Zrotation Xrotation Yrotation
                                    JOINT RightFinger22
                                    {
                                        OFFSET  -2.788160   0.000000   0.000000
                                        CHANNELS 3 Zrotation Xrotation Yrotation
                                        End Site
                                        {
                                            OFFSET  -2.727660   0.000000   0.000000
                                        }
                                    }
                                }
                            }
                            JOINT RightFinger3
                            {
                                OFFSET  -7.899780   0.000000  -1.078090
                                CHANNELS 3 Zrotation Xrotation Yrotation
                                JOINT RightFinger31
                                {
                                    OFFSET  -4.646920   0.000000   0.000000
                                    CHANNELS 3 Zrotation Xrotation Yrotation
                                    JOINT RightFinger32
                                    {
                                        OFFSET  -2.323470   0.000000   0.000000
                                        CHANNELS 3 Zrotation Xrotation Yrotation
                                        End Site
                                        {
                                            OFFSET  -2.273050   0.000000   0.000000
                                        }
                                    }
                                }
                            }
                            JOINT RightFinger4
                            {
                                OFFSET  -7.435090   0.000000  -3.252850
                                CHANNELS 3 Zrotation Xrotation Yrotation
                                JOINT RightFinger41
                                {
                                    OFFSET  -3.717550   0.000000   0.000000
                                    CHANNELS 3 Zrotation Xrotation Yrotation
                                    JOINT RightFinger42
                                    {
                                        OFFSET  -1.858770   0.000000   0.000000
                                        CHANNELS 3 Zrotation Xrotation Yrotation
                                        End Site
                                        {
                                            OFFSET  -1.818440   0.000000   0.000000
                                        }
                                    }
                                }
                            }
                        }
                    }
                }
            }
        }
    }
    JOINT LeftHip
    {
        OFFSET   9.783010   0.000000   0.000000
        CHANNELS 3 Zrotation Xrotation Yrotation
        JOINT LeftKnee
        {
            OFFSET   0.000070 -41.789100   0.000028
            CHANNELS 3 Zrotation Xrotation Yrotation
            JOINT LeftAnkle
            {
                OFFSET   0.000087 -41.133200  -0.000100
                CHANNELS 3 Zrotation Xrotation Yrotation
                JOINT LeftToe
                {
                    OFFSET   0.000000  -6.358960  14.674500
                    CHANNELS 3 Zrotation Xrotation Yrotation
                    End Site
                    {
                        OFFSET   0.000000   0.000000   3.913200
                    }
                }
            }
        }
    }
    JOINT RightHip
    {
        OFFSET  -9.783020   0.000000   0.000000
        CHANNELS 3 Zrotation Xrotation Yrotation
        JOINT RightKnee
        {
            OFFSET   0.000044 -41.789100  -0.000870
            CHANNELS 3 Zrotation Xrotation Yrotation
            JOINT RightAnkle
            {
                OFFSET  -0.000090 -41.133200  -0.000245
                CHANNELS 3 Zrotation Xrotation Yrotation
                JOINT RightToe
                {
                    OFFSET   0.000000  -6.358960  14.674500
                    CHANNELS 3 Zrotation Xrotation Yrotation
                    End Site
                    {
                        OFFSET   0.000000   0.000000   3.913200
                    }
                }
            }
        }
    }
}
MOTION
Frames: 5
Frame Time:   0.016667
  0.566286  89.470000  -0.344979  -0.381787   0.585898  -1.226160   0.455856   1.239770  -0.272790   0.917929   2.477300  -0.555640   0.254653   0.530597  -0.007839   0.419291   1.075500   2.061850  -3.582700   0.978979   9.838050 -80.671600  -0.110015   2.261790   0.123047   6.212040 -13.468400  10.703900  -2.542150  -1.932460  41.838700  36.349000 -52.566100 -32.303500  -0.001350   0.000000 -11.151800   0.000000   0.002926 -35.857200  -1.096740   1.516510 -29.363800   0.003593   0.000411 -20.554700  -0.009951   0.001155 -32.587600  -3.679350   5.741800 -49.140700  -0.012340   0.002285 -32.739800  -0.000446   0.003216 -28.578700  -4.099300   7.486940 -43.266000   0.004732   0.001875 -28.815200  -0.000085   0.002643 -36.416700  -5.082020   6.858020 -55.081800   0.005534   0.003465 -36.684500  -0.002206   0.003928   6.434500   4.557030   3.916060  75.245500  -7.131000   0.063416   3.624210  -2.292750  13.720100 -17.733600  -1.541190   2.205520 -43.560800  35.734500  73.055200  24.726300  -0.006609  -0.001948   7.363170  -0.002873   0.004229  34.172800   2.511400   3.692970  28.025700  -0.004616   0.007785  19.618000   0.001101   0.005809  30.279200   1.355440   2.320450  45.460100  -0.003382   0.010044  30.276400   0.000555   0.006474  30.479200   1.250110   2.122470  45.769600  -0.000091  -0.000633  30.476600   0.002806   0.010893  40.361500  -1.180970  -1.389200  60.563800   0.001123   0.012632  40.335500   0.005038   0.004860   1.249470   2.485730  -0.764219   0.101184   0.496796   9.941680  -0.736389  -3.328970  -0.415826  -0.000000   0.000000   0.000000  -0.171739   2.861010  -1.211010   1.751720   0.261887  -8.995850  -2.324910  -3.460480  -0.169269  -0.000000   0.000000   0.000000
  0.552889  89.469900  -0.351932  -0.376324   0.573887  -1.212220   0.459170   1.250570  -0.272361   0.924610   2.498890  -0.554943   0.256241   0.540540  -0.007836   0.421783   1.095480   2.012980  -3.589320   0.979577   9.837360 -80.674700  -0.070111   2.234060   0.120842   6.187610 -13.455400  10.704000  -2.540060  -1.932420  41.863800  36.399200 -52.623400 -32.313300   0.005444   0.003899 -11.156700  -0.000095   0.002799 -35.865900  -1.100350   1.521160 -29.363800  -0.003614  -0.006277 -20.554700  -0.010215  -0.005103 -32.588000  -3.679350   5.741790 -49.146700  -0.012896  -0.002589 -32.740200  -0.000489  -0.004346 -28.578700  -4.100400   7.485220 -43.266000  -0.005459  -0.011124 -28.815200  -0.000092  -0.008375 -36.416700  -5.083390   6.856420 -55.081800  -0.007013  -0.016525 -36.684500  -0.002282  -0.011922   6.462770   4.514270   3.953010  75.267900  -7.041130   0.027920   3.557500  -2.316240  13.817300 -17.688600  -1.549660   2.202010 -43.453500  35.688700  73.077400  24.731600  -0.006678  -0.001931   7.365790  -0.002906   0.004286  34.168900   2.548620   3.747920  28.026100  -0.004590   0.007757  19.618300   0.001078   0.005786  30.265300   1.348420   2.309110  45.440000  -0.003376   0.010051  30.263000   0.000544   0.006450  30.479800   1.242130   2.109260  45.766700  -0.000061  -0.000676  30.476600   0.002780   0.010903  40.332200  -1.172170  -1.380360  60.519500   0.001105   0.012658  40.306000   0.004994   0.004832   1.249130   2.493550  -0.764115   0.101236   0.496024   9.935230  -0.745597  -3.330070  -0.422103  -0.000000   0.000000  -0.000000  -0.172354   2.877450  -1.221140   1.753660   0.253774  -8.993090  -2.329110  -3.458790  -0.174259  -0.000000   0.000000  -0.000000
  0.531455  89.469900  -0.363697  -0.367031   0.553336  -1.191460   0.466797   1.269930  -0.271017   0.939945   2.537590  -0.552584   0.267153   0.559427  -0.007812   0.439175   1.133540   1.871660  -3.603980   0.980636   9.832500 -80.680700  -0.006668   2.189230   0.115973   6.154200 -13.437700  10.704200  -2.535250  -1.932350  41.890700  36.451400 -52.682800 -32.328900   0.012238   0.007798 -11.164400  -0.000228   0.002590 -35.874400  -1.106390   1.529390 -29.363800  -0.011586  -0.012966 -20.554700  -0.010480  -0.011361 -32.588300  -3.679350   5.741790 -49.152700  -0.013451  -0.008284 -32.740500  -0.000559  -0.012335 -28.578400  -4.104090   7.483520 -43.266000  -0.016651  -0.024122 -28.815200  -0.000103  -0.019469 -36.416300  -5.087790   6.854850 -55.081800  -0.020891  -0.036514 -36.684500  -0.002409  -0.027982   6.505000   4.431910   3.999030  75.312500  -6.943650  -0.007561   3.448210  -2.377310  14.027800 -17.542800  -1.608950   2.177450 -43.313200  35.562600  73.108600  24.768300  -0.006833  -0.001903   7.384140  -0.002977   0.004401  34.170500   2.585840   3.802870  28.028700  -0.004536   0.007698  19.620100   0.001018   0.005734  30.239500   1.299250   2.229720  45.400200  -0.003362   0.010067  30.236500   0.000518   0.006394  30.483800   1.186300   2.016760  45.760700   0.000000  -0.000748  30.476600   0.002735   0.010922  40.285500  -1.158260  -1.366330  60.449000   0.001067   0.012713  40.259000   0.004898   0.004771   1.248690   2.506160  -0.763973   0.101320   0.495257   9.925070  -0.759746  -3.332110  -0.431129  -0.000000   0.000000   0.000000  -0.175770   2.898820  -1.242580   1.759960   0.238878  -8.979520  -2.338480  -3.449370  -0.184599  -0.000000   0.000000  -0.000000
  0.516326  89.469900  -0.372945  -0.357354   0.537020  -1.178140   0.478016   1.287210  -0.268820   0.962431   2.572110  -0.548577   0.291708   0.578712  -0.007733   0.479479   1.172470   1.646190  -3.623700   0.981872   9.819680 -80.689200   0.030786   2.157070   0.107065   6.147940 -13.434400  10.704700  -2.529060  -1.932270  41.887800  36.457100 -52.677300 -32.340000   0.011812   0.007513 -11.169900  -0.000287   0.002390 -35.868800  -1.112450   1.539010 -29.359400  -0.012478  -0.012900 -20.551600  -0.008621  -0.011349 -32.586600  -3.679350   5.741790 -49.152300  -0.010502  -0.009241 -32.738800  -0.000630  -0.012833 -28.576300  -4.112920   7.497030 -43.266000  -0.017818  -0.024052 -28.815200  -0.000115  -0.019558 -36.410900  -5.098460   6.866930 -55.075800  -0.022443  -0.036437 -36.680500  -0.002535  -0.028227   6.529650   4.340930   4.009380  75.364700  -6.934790  -0.006081   3.360560  -2.455440  14.273700 -17.293000  -1.713000   2.072080 -42.890900  35.171000  72.775400  24.979900  -0.007053  -0.001877   7.489950  -0.003074   0.004540  34.213700   2.522860   3.705310  28.059400  -0.004464   0.007614  19.641600   0.000925   0.005660  30.204900   1.139910   1.960230  45.341100  -0.003343   0.010089  30.197100   0.000482   0.006312  30.483900   1.014430   1.726010  45.751300   0.000074  -0.000820  30.471400   0.002693   0.010941  40.245200  -1.146610  -1.354400  60.388300   0.001014   0.012785  40.218600   0.004761   0.004686   1.248580   2.513060  -0.763916   0.103786   0.504082   9.916650  -0.768700  -3.334810  -0.435849   0.000000   0.000000  -0.000000  -0.184454   2.902070  -1.268890   1.771190   0.231589  -8.950010  -2.352810  -3.420140  -0.201006  -0.000000   0.000000   0.000000
  0.501988  89.470000  -0.383473  -0.351189   0.517573  -1.171640   0.490354   1.308290  -0.265476   0.987149   2.614230  -0.542345   0.329237   0.602143  -0.007648   0.541317   1.220040   1.322330  -3.646830   0.982694   9.795550 -80.695900   0.078296   2.124960   0.097691   6.140130 -13.430200  10.705900  -2.520370  -1.932180  41.884900  36.462800 -52.671800 -32.349500   0.010693   0.006849 -11.174700  -0.000307   0.002271 -35.835800  -1.116100   1.545070 -29.332500  -0.012605  -0.012444 -20.532800  -0.005164  -0.011264 -32.581400  -3.679350   5.741780 -49.149400  -0.005737  -0.009378 -32.733500  -0.000672  -0.012904 -28.574300  -4.119800   7.513170 -43.266000  -0.017984  -0.023557 -28.815200  -0.000122  -0.019571 -36.400400  -5.106050   6.883120 -55.061500  -0.022665  -0.035893 -36.670900  -0.002612  -0.028262   6.543870   4.240120   4.010390  75.415400  -6.933520   0.004280   3.285300  -2.592820  14.627700 -16.933800  -1.963410   1.855370 -42.388000  34.678700  72.205900  25.160000  -0.007287  -0.001861   7.580020  -0.003175   0.004686  34.291800   2.411460   3.531890  28.118500  -0.004393   0.007526  19.683000   0.000808   0.005581  30.186300   0.939258   1.615590  45.301700  -0.003324   0.010110  30.170900   0.000448   0.006225  30.485000   0.786849   1.338250  45.744900   0.000164  -0.000862  30.466100   0.002651   0.010960  40.222400  -1.140070  -1.347660  60.353800   0.000957   0.012858  40.195600   0.004616   0.004596   1.248690   2.524000  -0.763905   0.108128   0.512903   9.911950  -0.775917  -3.336560  -0.437819  -0.000000   0.000000  -0.000000  -0.194088   2.905310  -1.301540   1.786660   0.207615  -8.909440  -2.366190  -3.398640  -0.212063  -0.000000   0.000000   0.000000
